<svg xmlns="http://www.w3.org/2000/svg" width="800" height="1000" viewBox="0 0 800 1000">
  <defs>
    <linearGradient id="g" x1="0" x2="1" y1="0" y2="1">
      <stop offset="0" stop-color="hsl(301,70%,60%)"/>
      <stop offset="1" stop-color="hsl(341,70%,35%)"/>
    </linearGradient>
    <radialGradient id="r" cx="40%" cy="30%" r="80%">
      <stop offset="0" stop-color="rgba(255,255,255,0.55)"/>
      <stop offset="1" stop-color="rgba(255,255,255,0)"/>
    </radialGradient>
    <filter id="shadow" x="-20%" y="-20%" width="140%" height="140%">
      <feDropShadow dx="0" dy="8" stdDeviation="10" flood-color="rgba(0,0,0,0.35)"/>
    </filter>
  </defs>
  <rect width="800" height="1000" fill="url(#g)"/>
  <circle cx="320" cy="280" r="320" fill="url(#r)"/>
  <g filter="url(#shadow)">
    <path d="M400 240c80 0 170 90 170 180 0 120-90 240-170 360-80-120-170-240-170-360 0-90 90-180 170-180z"
          fill="rgba(255,255,255,0.22)"/>
    <path d="M400 280c60 0 120 60 120 120 0 90-60 180-120 270-60-90-120-180-120-270 0-60 60-120 120-120z"
          fill="rgba(255,255,255,0.28)"/>
    <circle cx="400" cy="410" r="52" fill="rgba(255,255,255,0.38)"/>
  </g>
  <text x="60" y="120" font-family="Georgia, 'Times New Roman', serif" font-size="74" letter-spacing="6" fill="rgba(255,255,255,0.75)">FLOWER</text>
  <text x="60" y="220" font-family="Georgia, 'Times New Roman', serif" font-size="86" font-weight="700" fill="rgba(255,255,255,0.92)">Liliom</text>
  <text x="60" y="940" font-family="system-ui, -apple-system, Segoe UI, Roboto, Arial" font-size="30" fill="rgba(255,255,255,0.75)">virag-konyvklon</text>
</svg>